# xmcd
#
# Track frame offsets: 
#        150
#        11772
#        23019
#        36745
#        49019
#        65273
#        77561
#        92785
#        106667
#        121761
#        134048
#        152569
#        165858
#        182063
#
# Disc length: 2629 seconds
#
# Revision: 0
# Processed by: cddbd v1.5.2PL0 Copyright (c) Steve Scherf et al.
# Submitted via: ExactAudioCopy v1.0b4
#
DISCID=a80a430e
DTITLE=Joe Lewis Band - Grace, Faith, and Blues
DYEAR=2015
DGENRE=Blues
TTITLE0=Holy Roller
TTITLE1=More of You
TTITLE2=Pray'n
TTITLE3=Heavy Load Blues
TTITLE4=Shame
TTITLE5=Back Again
TTITLE6=Abba Elohim
TTITLE7=Love It or Leave It
TTITLE8=Southern Man
TTITLE9=Stuck On Stupid
TTITLE10=Your Day Is Gonna Come
TTITLE11=Have Thine Own Way
TTITLE12=In a Rude Mood
TTITLE13=1st Day in Heaven
EXTD=
EXTT0=
EXTT1=
EXTT2=
EXTT3=
EXTT4=
EXTT5=
EXTT6=
EXTT7=
EXTT8=
EXTT9=
EXTT10=
EXTT11=
EXTT12=
EXTT13=
PLAYORDER=
